<svg version="1.1" xmlns="http://www.w3.org/2000/svg" xmlns:xlink="http://www.w3.org/1999/xlink" width="122.28175" height="136.26446" viewBox="0,0,122.28175,136.26446"><g transform="translate(-181.13545,-85.49334)"><g data-paper-data="{&quot;isPaintingLayer&quot;:true}" fill-rule="nonzero" stroke="none" stroke-width="1" stroke-linecap="butt" stroke-linejoin="miter" stroke-miterlimit="10" stroke-dasharray="" stroke-dashoffset="0" style="mix-blend-mode: normal"><g><path d="M286.975,179.125l-2.1,3.525l-4.65,3.825l-6.9,1.875l-7.425,-1.725c0,0 -5.4,-3.075 -5.475,-3.3c-0.075,-0.225 -4.875,-5.85 -4.875,-5.85l-2.7,-5.7l-0.687,-3.075l1.362,-0.75h2.775l2.071,3.225l2.204,3.476l3.375,2.824l6.675,3h5.786l2.914,-1.05l3.15,-3.225z" fill="#afd7f2"/><path d="M287.685,164.8l-0.71,5.925l1.425,1.425l1.95,0.375l2.025,-1.538l2.025,-1.987l1.95,-0.45l2.1,0.45l0.975,3.525l-1.725,4.125l-5.1,3.075l-4.915,-0.45l-4.841,-2.835l-1.344,-2.848l-0.825,-4.592l1.2,-3.45l1.275,-2.775l2.175,-0.525h1.65l0.71,2.55" fill="#ef463c"/><path d="M257.588,171.684c-0.084,-0.66 0.213,-1.222 0.943,-1.185c0.48,0.025 0.848,0.609 1.122,0.965c0.365,0.474 0.296,1.014 0.645,1.481c0.355,0.473 0.84,0.825 1.259,1.236c0.693,0.679 1.431,1.275 2.202,1.873c2.176,1.686 4.498,3.089 7.293,3.607c2.348,0.435 4.552,0.298 6.663,-0.873c0.589,-0.326 1.278,-0.506 1.803,-0.907c0.791,-0.606 1.478,-1.348 2.125,-1.953c-0.618,-1.536 -1.277,-2.933 -1.746,-4.391c-0.655,-2.035 -0.12,-4.064 0.329,-6.061c0.37,-1.645 1.175,-3.057 2.512,-4.137c1.124,-0.907 3.113,-1.075 4.341,-0.344c1.407,0.837 1.802,1.985 1.542,3.778c-0.253,1.745 -0.394,3.514 -0.462,5.276c-0.018,0.453 0.429,1.316 0.656,1.314c0.858,-0.009 1.808,-0.123 2.543,-0.527c0.718,-0.395 1.265,-1.153 1.8,-1.822c0.987,-1.234 2.078,-2.216 3.804,-1.935c2.221,0.362 3.188,1.919 3.589,3.934c0.432,2.17 -0.531,4.002 -1.763,5.602c-1.147,1.492 -2.668,2.734 -4.401,3.536c-1.695,0.784 -4.229,1.34 -6.013,0.575c-0.224,-0.096 -0.808,0.497 -1.148,0.845c-1.068,1.093 -2.077,2.245 -3.153,3.33c-0.6,0.606 -1.248,1.179 -1.941,1.671c-2.739,1.945 -5.932,2.065 -9.129,2.365c-0.502,0.048 -1.009,0.06 -1.513,0.04c-1.794,-0.073 -3.531,-0.58 -5.174,-1.281c-0.522,-0.223 -1.053,-0.44 -1.546,-0.721c-0.311,-0.178 -0.621,-0.355 -0.937,-0.524c-0.539,-0.288 -1.054,-0.62 -1.57,-0.947c-0.882,-0.558 -1.746,-1.115 -2.565,-1.767c-0.542,-0.432 -1.131,-0.779 -1.627,-1.274c-0.26,-0.259 -0.561,-0.523 -0.788,-0.811c-0.353,-0.45 -0.698,-0.899 -1.086,-1.334c-0.423,-0.475 -0.84,-0.957 -1.233,-1.457c-0.772,-0.983 -1.305,-2.131 -1.821,-3.261c-0.427,-0.932 -0.93,-1.937 -0.97,-2.986c-0.021,-0.54 -0.054,-1.054 0.384,-1.431c0.234,-0.201 0.506,-0.175 0.786,-0.073c0.736,0.268 1.357,0.662 1.74,1.353c0.201,0.363 0.267,0.818 0.411,1.236c0.155,0.451 0.341,0.892 0.486,1.347c0.318,1 0.846,2.015 1.414,2.895c0.206,0.32 0.626,1.017 1.037,1.105c0.469,0.1 1.009,-0.422 1.281,-0.735c0.409,-0.468 1.184,-1.338 1.284,-1.953c-0.386,-0.093 -0.972,-0.745 -1.274,-1.033c-0.529,-0.505 -0.918,-1.197 -1.272,-1.829c-0.185,-0.331 -0.326,-0.633 -0.549,-0.933c-0.052,-0.071 -0.098,-0.149 -0.136,-0.232c-0.095,-0.203 -0.149,-0.434 -0.177,-0.647zM281.777,170c0.372,1.605 0.284,3.825 1.932,5.415c0.896,0.864 1.871,1.696 2.937,2.327c2.458,1.453 5.019,1.077 7.506,0.037c0.668,-0.279 1.178,-0.921 1.782,-1.367c1.597,-1.178 2.577,-2.675 2.335,-4.731c-0.09,-0.772 -0.222,-1.669 -1.197,-1.876c-0.886,-0.188 -1.4,0.412 -2,0.996c-1.407,1.366 -2.385,3.181 -4.697,3.556c-2.883,0.468 -4.983,-1.144 -4.64,-4.046c0.233,-1.967 0.662,-3.91 0.923,-5.875c0.049,-0.367 -0.175,-0.972 -0.465,-1.147c-1.065,-0.639 -2.094,-0.341 -2.756,0.742c-1.035,1.692 -1.651,3.524 -1.66,5.969zM279.956,182.508c0.109,0.249 0.178,0.516 0.225,0.794c0.111,0.653 0.102,1.359 0.217,1.983c0.246,-0.315 0.608,-0.423 0.905,-0.665c0.222,-0.179 0.369,-0.412 0.587,-0.601c0.76,-0.657 1.646,-1.156 2.366,-1.899c0.512,-0.527 1.412,-1.479 1.59,-2.21c-0.835,-0.372 -1.426,-1.08 -2.098,-1.68c-0.161,-0.144 -0.606,-0.785 -0.792,-0.799c-0.506,-0.038 -1.368,1.063 -1.731,1.362c-0.528,0.433 -1.515,0.976 -1.813,1.582c-0.374,0.762 0.255,1.481 0.544,2.133zM269.774,183.563c-0.189,0.816 -0.776,1.807 -1.323,2.438l0.15,0.25c0.475,0.256 0.921,0.317 1.443,0.411c0.789,0.143 1.476,0.389 2.287,0.389c1.337,0 2.705,-0.059 4.025,-0.256c0.703,-0.105 2.084,-0.383 2.245,-1.083c0.217,-0.947 -0.293,-2.269 -0.712,-3.117c-0.09,-0.181 -0.374,-0.702 -0.512,-0.786c-0.353,-0.217 -0.932,-0.024 -1.34,-0.009c-1.058,0.039 -2.036,0.201 -3.099,0.2c-0.975,-0.001 -1.961,-0.036 -2.933,0.006c-0.108,0.505 -0.12,1.08 -0.231,1.557zM260.967,180.021c-0.391,0.53 -1.03,0.843 -0.598,1.516c0.583,0.91 1.668,1.481 2.518,2.104c0.832,0.611 1.674,1.239 2.639,1.627c0.976,0.392 1.691,-0.312 2.11,-1.182c0.309,-0.639 0.84,-1.564 0.903,-2.365c0.016,-0.197 0.003,-0.387 -0.048,-0.563c-0.54,-0.216 -1.081,-0.494 -1.582,-0.782c-0.818,-0.469 -1.632,-0.929 -2.43,-1.417c-0.429,-0.262 -1.332,-1.09 -1.868,-0.967c-0.601,0.139 -1.308,1.57 -1.644,2.029z" fill="#30419a"/></g><g><path d="M228.25,169.754c0.075,0.004 2.1,-0.754 2.1,-0.754h2.025l1.125,2.311v2.281l-2.203,3.658l-6.422,6l-6.9,3.225l-6.45,1.35l-6.525,-1.125l-5.475,-2.925l-2.1,-2.625l4.275,-3.525l4.8,2.1l7.35,0.975l6.225,-2.1l5.25,-3.225l2.1,-3.6c0,0 0.75,-2.025 0.825,-2.021z" fill="#afd7f2"/><path d="M203.275,174.762l-2.212,3.388l-3.638,2.325c0,0 -3.825,0.9 -4.125,0.975c-0.3,0.075 -4.5,-1.35 -4.5,-1.35l-3.375,-4.95v-4.275l1.8,-0.75l2.925,1.575l2.325,2.4l2.55,0.662l2.4,-0.512l1.35,-2.1l-0.9,-5.175c0,0 -0.6,-3.6 -0.45,-3.9c0.15,-0.3 2.175,-1.65 2.175,-1.65l2.55,0.6l2.1,3.9v3.829z" fill="#ef463c"/><path d="M233.136,171.432c0.779,-0.436 1.232,0.341 1.236,1.005c0.002,0.333 0.026,0.668 0,1.001c-0.022,0.294 -0.129,0.571 -0.147,0.863c-0.047,0.757 -0.441,1.361 -0.731,2.042c-0.118,0.276 -0.283,0.533 -0.455,0.78c-0.328,0.472 -0.686,0.833 -1.074,1.262c-0.453,0.502 -0.924,0.989 -1.385,1.485c-0.967,1.039 -1.993,2.026 -3.082,2.939c-2.52,2.113 -5.383,3.798 -8.49,4.886c-4.036,1.413 -8.154,1.395 -12.39,0.447c-2.382,-0.533 -4.252,-1.762 -6.194,-2.961c-1.048,-0.649 -1.822,-1.729 -2.797,-2.52c-0.361,-0.292 -1.002,-0.536 -1.411,-0.423c-4.82,1.331 -10.059,-2.377 -11.587,-6.449c-0.526,-1.403 -1.096,-2.66 -0.713,-4.194c0.238,-0.951 0.998,-1.886 1.805,-2.425c0.818,-0.548 1.988,-0.246 2.784,0.192c1.121,0.616 2.034,1.464 2.948,2.348c0.594,0.576 1.231,1.122 1.914,1.586c1.26,0.857 2.89,0.848 3.655,-0.62c0.586,-1.122 0.159,-3.239 -0.068,-4.431c-0.303,-1.593 -0.886,-3.272 -1.016,-4.85c-0.154,-1.849 1.985,-2.94 3.492,-2.903c3.178,0.08 4.351,2.482 5.277,4.882c0.665,1.725 0.942,3.559 0.762,5.403c-0.191,1.946 -1.112,3.564 -1.532,5.418c-0.322,1.421 0.945,1.948 2.22,2.449c1.524,0.6 3.297,0.948 4.928,1.026c2.409,0.117 4.79,-0.424 6.909,-1.578c1.69,-0.921 3.34,-1.912 5.007,-2.875c0.576,-0.332 1.163,-0.654 1.679,-1.077c0.55,-0.45 0.862,-0.939 1.154,-1.589c0.172,-0.381 0.365,-0.804 0.621,-1.132c0.323,-0.414 0.907,-0.513 1.364,-0.218c0.394,0.255 0.529,0.826 0.556,1.274c0.032,0.517 0.14,1.07 -0.219,1.489c-0.413,0.484 -0.874,0.974 -1.381,1.36c-0.348,0.266 -3.202,2.721 -3.47,2.464c0.423,0.406 0.803,0.877 1.241,1.252c0.514,0.442 0.842,0.899 1.152,1.51c0.053,0.104 0.082,0.182 0.108,0.239c0.053,0.116 0.096,0.147 0.31,0.146c0.273,-0.002 0.762,-0.435 0.985,-0.585c0.319,-0.215 0.533,-0.39 0.797,-0.687c1.218,-1.361 3.008,-2.459 3.643,-4.274c0.11,-0.315 0.227,-0.627 0.323,-0.947c0.089,-0.296 0.151,-0.648 0.225,-1.009c0.161,-0.792 0.378,-1.626 1.047,-2.001zM200.178,177.729c2.19,-2.373 3.535,-5.096 3.241,-8.473c-0.199,-2.274 -0.771,-4.37 -2.43,-5.999c-0.335,-0.328 -1.079,-0.456 -1.56,-0.346c-0.35,0.079 -0.832,0.716 -0.811,1.079c0.066,1.155 0.306,2.305 0.544,3.444c0.216,1.036 0.766,2.066 0.717,3.076c-0.062,1.283 -0.534,2.557 -0.916,3.808c-0.498,1.637 -1.712,2.395 -3.438,2.322c-1.99,-0.084 -3.359,-1.259 -4.717,-2.527c-0.944,-0.882 -1.941,-1.724 -2.999,-2.462c-0.747,-0.519 -1.57,-0.085 -1.71,0.813c-0.065,0.423 -0.06,0.9 0.069,1.302c0.573,1.778 1.239,3.523 2.773,4.734c1.423,1.123 2.867,2.231 4.966,2.015c2.01,-0.113 4.864,-1.263 6.271,-2.786zM206.118,180.752c-0.222,-0.17 -0.693,-0.233 -0.96,-0.35c-0.586,-0.258 -1.182,-0.6 -1.709,-0.912c-0.904,-0.533 -1.664,-0.512 -2.416,0.322c-0.3,0.331 -0.669,0.582 -1.032,0.839c-0.102,0.072 -0.445,0.24 -0.715,0.392c-0.171,0.097 -0.311,0.187 -0.341,0.241c-0.244,0.456 0.747,1.104 0.991,1.352c0.562,0.572 1.103,1.098 1.791,1.528c0.865,0.542 1.737,1.4 2.835,1.284c0.646,-0.069 0.814,-0.511 1.061,-1.054c0.395,-0.871 0.459,-1.789 0.628,-2.72c0.079,-0.437 0.202,-0.667 -0.133,-0.922zM214.595,182.873c-0.128,-0.45 -0.666,-1.056 -1.076,-1.104c-1.795,-0.21 -3.611,-0.241 -5.424,-0.337c-0.381,-0.019 -0.805,3.253 -0.894,3.656c-0.057,0.258 -0.215,0.485 -0.15,0.762c0.179,0.771 2.857,0.824 3.641,0.947c1.035,0.163 2.332,0.324 3.317,-0.131c1.549,-0.714 0.941,-2.542 0.586,-3.793zM222.833,181.348c-0.335,-0.622 -0.702,-1.229 -1.145,-1.78c-0.022,-0.028 -0.045,-0.056 -0.066,-0.082c-0.337,-0.41 -0.576,-0.6 -1.123,-0.416c-0.783,0.265 -1.502,0.646 -2.239,1.007c-0.424,0.206 -0.899,0.274 -1.313,0.506c-0.655,0.367 -0.438,0.518 -0.183,1.109c0.433,1.003 0.243,2.049 0.31,3.086c0.114,1.748 3.229,0.33 4.019,-0.065c0.667,-0.333 2.146,-0.847 2.405,-1.633c0.163,-0.495 -0.421,-1.277 -0.665,-1.732z" fill="#30419a"/></g><g><path d="M235.149,167.95c0,0 3.6,-3 3.825,-3.529c0.225,-0.528 5.925,0.079 6.3,0.004c0.375,-0.075 4.575,1.05 4.575,1.05l3.261,2.703l1.155,6.584l2.035,5.263l0.975,7.8l-1.425,8.475l-3.687,6.225l-4.263,2.175l-5.025,-0.375l-4.2,-0.825l-4.987,-7.744l-1.163,-5.231l0.375,-10.05l1.95,-8.625z" fill="#afd7f2"/><path d="M249.325,205.525l4.875,12.825l-2.037,1.425l-14.688,0.675l-1.275,-1.2l2.925,-14.55l10.2,0.825" fill="#ef463c"/><path d="M252.674,172.537c-0.311,-0.562 -0.81,-1.141 -0.671,-1.831c0.06,-0.301 0.376,-0.81 0.673,-0.928c0.287,-0.114 0.662,0.196 0.877,0.366c0.98,0.774 1.365,2.221 1.702,3.36c0.186,0.628 0.206,1.294 0.431,1.899c0.265,0.712 0.531,1.426 0.718,2.163c0.129,0.502 0.237,1.002 0.392,1.498c0.141,0.45 0.131,0.876 0.287,1.323c0.188,0.54 0.415,1.074 0.494,1.644c0.028,0.204 -0.027,0.395 0.009,0.604c0.05,0.285 0.159,0.557 0.226,0.837c0.224,0.933 0.394,1.88 0.47,2.837c0.149,1.85 0.078,3.708 0.014,5.561c-0.083,2.359 -0.818,4.404 -1.707,6.55c-0.404,0.972 -1.058,1.779 -1.68,2.622c-0.471,0.638 -0.956,1.148 -1.544,1.669c-0.433,0.385 -0.793,0.623 -1.138,1.081c-0.137,0.183 -1.497,1.255 -1.472,1.32c1.347,3.577 2.701,7.099 3.99,10.644c0.334,0.919 0.6,1.905 0.653,2.874c0.067,1.258 -1.407,2.432 -3.099,2.53c-4.13,0.24 -8.262,0.482 -12.396,0.596c-1.27,0.034 -2.494,-0.419 -3.683,-0.806c-1.176,-0.383 -1.498,-1.455 -1.067,-2.553c0.503,-1.28 0.527,-2.664 0.937,-3.99c0.528,-1.705 0.774,-3.519 1.149,-5.268c0.215,-0.999 0.445,-1.994 0.651,-2.995c0.131,-0.635 0.402,-1.396 0.354,-2.041c-1.013,-0.493 -2.025,-1.681 -2.788,-2.501c-0.701,-0.753 -1.244,-1.686 -1.614,-2.636c-2.064,-5.29 -2.965,-10.694 -2.359,-16.384c0.117,-1.1 0.417,-2.181 0.614,-3.273c0.067,-0.371 0.036,-0.749 0.09,-1.12c0.07,-0.486 0.17,-0.986 0.262,-1.471c0.136,-0.708 0.261,-1.422 0.404,-2.127c0.16,-0.791 0.381,-1.558 0.687,-2.304c0.175,-0.431 0.313,-0.874 0.787,-1.06c0.256,-0.101 0.741,-0.161 1,-0.048c0.316,0.139 0.411,0.679 0.492,0.986c0.122,0.465 0.205,1.091 -0.011,1.537c-0.236,0.487 -0.341,0.957 -0.464,1.491c-0.295,1.281 -0.621,2.554 -0.946,3.827c-1.004,3.937 -1.238,7.898 -0.519,11.912c0.216,1.202 0.51,2.226 1.934,2.489c1.594,0.294 3.167,0.695 4.757,1.007c4.175,0.818 8.318,0.77 12.415,-0.499c1.529,-0.474 2.874,-1.818 2.891,-3.31c0.023,-2.026 -0.085,-4.062 -0.298,-6.078c-0.148,-1.41 -0.526,-2.801 -0.87,-4.183c-0.309,-1.241 -0.577,-2.522 -0.844,-3.764c-0.152,-0.707 -0.254,-1.426 -0.462,-2.12c-0.179,-0.6 -0.341,-1.167 -0.615,-1.721c-0.036,-0.072 -0.074,-0.143 -0.113,-0.216zM241.245,206.158c-0.722,0.04 -1.178,-0.328 -1.423,0.513c-0.252,0.869 -0.44,1.751 -0.722,2.619c-0.314,0.967 -0.543,1.909 -0.799,2.896c-0.217,0.835 -0.386,1.762 -0.462,2.619c-0.045,0.502 0.023,1.018 -0.1,1.512c-0.094,0.381 -0.218,0.662 -0.238,1.08c-0.025,0.533 -0.054,1.1 0.413,1.456c0.352,0.27 1.429,0.401 1.824,0.113c0.063,-0.046 0.113,-0.103 0.152,-0.168c0.143,-0.235 0.15,-0.569 0.187,-0.829c0.124,-0.883 0.22,-1.771 0.317,-2.657c0.249,-2.268 0.474,-4.538 0.675,-6.809c0.068,-0.777 0.172,-1.566 0.176,-2.345zM246.122,217.524c-0.036,-1.545 -0.238,-3.118 -0.519,-4.636c-0.219,-1.178 -0.148,-2.392 -0.387,-3.576c-0.136,-0.672 -0.111,-1.361 -0.207,-2.037c-0.057,-0.409 -0.043,-0.629 -0.393,-0.768c-0.196,-0.077 -0.5,-0.014 -0.71,-0.015c-0.382,-0.002 -0.558,-0.051 -0.753,0.241c-0.146,0.22 -0.149,0.725 -0.189,0.986c-0.1,0.66 -0.144,1.327 -0.162,1.995c-0.041,1.477 -0.402,2.883 -0.451,4.35c-0.042,1.239 -0.095,2.481 -0.152,3.711c-0.019,0.397 -0.006,0.612 0.289,0.9c0.522,0.509 1.877,0.229 2.544,0.187c0.552,-0.034 0.84,-0.183 0.978,-0.486c0.095,-0.207 0.119,-0.487 0.112,-0.852zM248.907,207.574c-0.153,-0.369 -0.381,-1.097 -0.798,-1.27c-0.351,-0.145 -1.114,-0.151 -1.467,-0.02c-0.576,0.214 -0.392,0.58 -0.295,1.126c0.245,1.372 0.46,2.749 0.72,4.119c0.267,1.4 0.586,2.765 0.961,4.149c0.129,0.477 0.353,0.955 0.533,1.409c0.3,0.749 0.583,1.307 1.463,1.341c0.587,0.023 1.694,-0.03 2.23,-0.323c0.149,-0.081 0.253,-0.182 0.321,-0.294c0.248,-0.407 0.025,-0.978 -0.189,-1.439c-0.409,-0.879 -0.791,-1.743 -1.125,-2.655c-0.753,-2.059 -1.517,-4.115 -2.354,-6.143zM254.459,196.274c-6.269,2.233 -12.433,1.258 -18.669,-0.345c1.784,5.163 5.247,8.11 10.643,7.476c3.932,-0.462 6.598,-3.2 8.026,-7.131z" fill="#30419a"/></g><g><path d="M273.175,113.5l0.9,4.725l0.9,48.75l-0.45,3.225l-56.925,2.325l-3,-0.45l-1.65,-3.525l-1.425,-52.575l27.9,-2.475h33.75" fill="#afd7f2"/><path d="M211.525,124.75l0.825,24.075l-27.6,-9.45l-1.35,-1.8l28.125,-12.825" fill="#f7ec1e"/><path d="M241.675,87.175l14.25,25.65c0,0 -25.125,1.5 -25.35,1.5z" fill="#f7ec1e"/><path d="M274.6,125.95l27.6,12.45l-27.525,14.1l-0.075,-26.55" fill="#f7ec1e"/><path d="M275.898,153.282c-0.049,1.379 -0.051,2.763 -0.004,4.143c0.088,2.592 0.241,5.181 0.328,7.773c0.055,1.614 0.248,3.273 -0.057,4.826c-0.119,0.607 -1.377,1.23 -2.208,1.402c-1.274,0.263 -2.626,0.14 -3.945,0.183c-1.597,0.052 -3.193,0.116 -4.789,0.175c-0.806,0.03 -1.613,0.058 -2.419,0.083c-0.732,0.024 -1.429,0.137 -2.157,0.161c-0.725,0.025 -1.454,0.132 -2.175,0.207c-1.102,0.115 -2.236,0.268 -3.341,0.287c-0.883,0.015 -1.764,0.059 -2.647,0.097c-0.776,0.031 -1.553,-0.015 -2.298,0.199c-0.781,0.225 -1.729,0.158 -2.539,0.185c-0.912,0.03 -1.824,0.043 -2.736,0.059c-1.404,0.025 -2.809,0.031 -4.213,0.029c-1.116,-0.001 -2.234,-0.006 -3.35,0.034c-0.441,0.016 -0.883,-0.021 -1.323,-0.004c-1.44,0.057 -2.864,0.129 -4.311,0.128c-1.473,-0.001 -2.946,-0.029 -4.419,-0.029c-0.672,0 -1.443,-0.09 -2.1,0.054c-0.489,0.108 -0.937,0.029 -1.432,0.069c-0.456,0.039 -0.878,0.096 -1.34,0.104c-2.275,0.034 -4.551,0.122 -6.826,0.144c-2.289,0.022 -3.58,-2.696 -3.598,-4.614c-0.041,-4.391 -0.287,-8.668 -0.509,-13.053c-0.094,-1.86 -0.018,-3.728 -0.018,-5.472c-1.451,-0.456 -2.664,-0.797 -3.851,-1.218c-3.254,-1.155 -6.506,-2.318 -9.741,-3.527c-5.347,-1.998 -10.858,-3.595 -15.878,-6.395c-0.405,-0.226 -0.914,-0.824 -0.863,-1.176c0.073,-0.507 0.514,-1.126 0.975,-1.383c1.907,-1.064 3.845,-2.09 5.839,-2.977c4.996,-2.221 9.812,-4.564 14.944,-6.496c1.865,-0.702 3.724,-1.44 5.501,-2.345c0.761,-0.388 1.602,-0.64 1.887,-1.453c0.221,-0.629 -0.036,-1.5 -0.036,-2.154c0.001,-1.305 -0.07,-2.61 -0.054,-3.916c0.024,-1.988 0.196,-2.522 1.97,-2.686c4.391,-0.405 8.782,-0.821 13.174,-1.205c1.011,-0.088 2.036,-0.019 3.043,-0.125c0.331,-0.035 0.797,-0.327 0.917,-0.618c1.35,-3.288 2.903,-6.525 3.887,-9.925c1.14,-3.941 3.244,-7.445 4.569,-11.286c0.445,-1.29 1.223,-2.463 1.821,-3.703c0.183,-0.381 0.241,-0.82 0.414,-1.207c0.178,-0.398 0.355,-1 0.659,-1.09c0.46,-0.136 1.199,-0.092 1.517,0.202c0.842,0.778 1.665,1.647 2.235,2.631c1.712,2.951 3.378,5.932 4.913,8.977c1.096,2.174 2.16,4.364 3.212,6.559c0.903,1.886 2.276,3.794 2.956,5.762c0.187,0.542 0.187,1.213 0.64,1.58c0.644,0.523 3.134,0.188 4.084,0.225c1.688,0.067 3.35,0.057 5.037,0.105c2.533,0.072 5.066,0.155 7.597,0.268c1.104,0.05 2.872,2.016 2.806,3.556c-0.104,2.449 0.088,4.91 0.162,7.365c0.01,0.318 0.084,0.634 0.102,0.952c0.114,2.104 0.133,2.044 2.188,2.779c2.163,0.774 4.271,1.703 6.419,2.521c1.142,0.434 2.328,0.751 3.478,1.167c1.812,0.656 3.569,1.508 5.424,1.994c2.247,0.587 4.226,1.664 6.234,2.744c0.72,0.387 1.566,0.537 2.287,0.924c1.785,0.957 1.914,2.209 0.594,3.646c-2.066,2.249 -4.867,3.272 -7.49,4.548c-2.85,1.387 -5.853,2.457 -8.749,3.754c-3.323,1.489 -6.607,3.065 -9.89,4.64c-0.25,0.12 -0.495,0.533 -0.507,0.816zM211.157,146.897c-0.248,-6.59 -0.491,-13.025 -0.744,-19.737c-8.386,3.7 -17.017,6.325 -24.895,10.957c1.228,0.76 2.447,1.4 3.728,1.875c2.786,1.035 5.595,2.008 8.408,2.966c2.58,0.877 5.179,1.701 7.768,2.549c1.414,0.463 2.819,0.956 4.247,1.372c0.415,0.12 0.894,0.018 1.488,0.018zM231.891,112.964c0.724,-0.103 1.331,-0.169 2.074,-0.259c2.525,-0.307 5.149,-0.208 7.697,-0.342c0.957,-0.05 11.296,-0.764 11.323,-0.593c-0.02,-0.13 -0.014,-0.216 -0.047,-0.283c-0.606,-1.235 -1.261,-2.448 -1.814,-3.706c-0.588,-1.336 -1.017,-2.743 -1.626,-4.069c-1.352,-2.943 -2.735,-5.874 -4.179,-8.773c-0.879,-1.766 -1.866,-3.482 -2.866,-5.184c-0.42,-0.713 -0.825,-0.755 -1.209,0.161c-0.919,2.193 -2.004,4.318 -2.903,6.519c-1.204,2.953 -2.356,5.927 -3.501,8.903c-0.956,2.484 -2.343,5.031 -2.949,7.626zM273.497,159.676c0.016,-3.719 -0.032,-7.438 -0.073,-11.157c-0.044,-4.042 -0.155,-8.083 -0.154,-12.125c0.001,-2.685 0.176,-5.371 0.216,-8.057c0.027,-1.858 0.009,-3.72 -0.082,-5.576c-0.113,-2.245 -0.293,-4.487 -0.51,-6.725c-0.074,-0.751 -0.376,-1.361 -1.377,-1.391c-2.488,-0.075 -4.971,-0.346 -7.457,-0.369c-3.661,-0.034 -7.325,0.038 -10.986,0.14c-3.231,0.09 -6.459,0.298 -9.69,0.421c-1.308,0.05 -2.625,-0.071 -3.927,0.028c-2.878,0.219 -5.746,0.563 -8.624,0.789c-1.817,0.142 -3.647,0.128 -5.467,0.247c-1.378,0.09 -2.746,0.308 -4.122,0.418c-2.804,0.223 -5.611,0.412 -8.558,0.625c0,4.202 -0.04,8.101 0.014,11.998c0.035,2.475 0.237,4.946 0.312,7.42c0.084,2.775 0.09,5.552 0.166,8.327c0.069,2.563 0.191,5.125 0.281,7.687c0.074,2.121 0.111,4.244 0.207,6.365c0.114,2.553 0.211,5.12 0.339,7.65c0.063,1.255 -0.03,3.631 1.239,4.36c1.108,0.636 3.573,0.362 4.779,0.349c4.608,-0.05 9.255,-0.203 13.85,-0.341c2.936,-0.089 5.871,-0.213 8.808,-0.28c3.124,-0.072 6.282,0.164 9.363,-0.227c2.298,-0.291 4.552,-0.294 6.84,-0.351c4.456,-0.113 8.907,-0.456 13.36,-0.711c0.795,-0.045 1.05,-0.542 1.064,-1.281c0.052,-2.745 0.174,-5.489 0.189,-8.233zM275.91,149.383c3.361,-1.342 6.561,-2.637 9.774,-3.897c1.911,-0.749 3.881,-1.358 5.754,-2.188c1.769,-0.784 3.453,-1.758 5.158,-2.68c0.788,-0.426 1.444,-1.049 2.213,-1.492c0.999,-0.574 1.929,-0.776 0.516,-1.648c-2.006,-1.239 -4.423,-1.953 -6.593,-2.833c-3.664,-1.487 -7.391,-2.813 -11.077,-4.248c-1.929,-0.75 -3.825,-1.586 -5.918,-2.46c0.39,7.228 -0.635,14.236 0.173,21.446z" fill="#30419a"/></g></g></g></svg>